<svg viewBox="-287 624.2 841.9 170.1" xmlns="http://www.w3.org/2000/svg"><path d="m-170 656.2 53 53-20.2 20.2-53-53 19.5-19.5" fill="#e12833"/><path d="m-202.7 688.9 53 53-20.2 20.3-53-53 19.5-19.5" fill="#e12833"/><path d="m-241.8 704.5 60.1-60.1-.8-.7-19.5-19.5-53 53-32 32 20.2 20.3 64.8 64.7 20.3-20.2-64.8-64.8z" fill="#e12833"/><g fill="#4a4a4a"><path d="m-55.8 757.6 7.1-92.3h16.7l12.3 33.7c2.2 5.8 4.4 11.8 6.6 18.3 2.2 6.4 3.8 11.4 4.9 15l1.8 5.3c4.2-12.4 8.8-25.3 13.8-38.6l12.9-33.7h16.7l8.5 92.3h-14l-3.3-36.2-2.9-37c-4.1 11.6-8.6 23.9-13.4 37l-12.9 34.4h-11l-12.5-34.4-12.4-36.4c0 4-.7 16.2-2.2 36.4l-2.7 36.2z"/><path d="m115.5 741.9v12.1c-5.1 2.9-11.9 4.4-20.3 4.4-10.8 0-19.4-3.2-25.7-9.7-6.4-6.5-9.6-15-9.6-25.5 0-11.1 2.9-19.9 8.8-26.2 5.8-6.3 13.3-9.5 22.3-9.5 8.9 0 15.9 2.8 21.1 8.3s7.8 13.5 7.8 23.9c0 2.8-.3 5.8-.8 8.9h-45.7c.9 6 3.5 10.6 7.7 13.8s9.5 4.8 15.9 4.8c7.4-.1 13.6-1.9 18.5-5.3zm-8.6-24v-2.5c-.2-5.2-1.6-9.3-4.2-12.4s-6.4-4.6-11.4-4.6c-4.6 0-8.5 1.7-11.8 5s-5.3 8.1-6.2 14.4h33.6z"/><path d="m136.9 672.9c-1.6-1.6-2.4-3.6-2.4-6s.8-4.4 2.4-6 3.6-2.5 6-2.5 4.4.8 6 2.5 2.5 3.7 2.5 6-.8 4.2-2.5 5.9-3.7 2.5-6 2.5c-2.4 0-4.4-.8-6-2.4zm-.7 84.7v-69.4h13.6v69.4z"/><path d="m220.9 741.9v12.1c-5.1 2.9-11.9 4.4-20.3 4.4-10.8 0-19.4-3.2-25.7-9.7-6.4-6.5-9.6-15-9.6-25.5 0-11.1 2.9-19.9 8.8-26.2 5.8-6.3 13.3-9.5 22.3-9.5 8.9 0 15.9 2.8 21.1 8.3s7.8 13.5 7.8 23.9c0 2.8-.3 5.8-.8 8.9h-45.6c.9 6 3.5 10.6 7.7 13.8s9.5 4.8 15.9 4.8c7.3-.1 13.5-1.9 18.4-5.3zm-8.6-24v-2.5c-.2-5.2-1.6-9.3-4.2-12.4s-6.4-4.6-11.4-4.6c-4.6 0-8.5 1.7-11.8 5s-5.3 8.1-6.2 14.4h33.6z"/><path d="m254.5 688.2v12.2c3.4-8.6 9.5-12.9 18.2-12.9 1.3 0 2.7.1 4.2.4v13.1c-1.9-.8-4.1-1.2-6.4-1.2-4.7 0-8.5 2.1-11.5 6.2s-4.5 9-4.5 14.7v37h-13.4v-69.4h13.4z"/><path d="m288.8 672.9c-1.6-1.6-2.4-3.6-2.4-6s.8-4.4 2.4-6 3.6-2.5 6-2.5 4.4.8 6 2.5c1.6 1.6 2.5 3.7 2.5 6s-.8 4.2-2.5 5.9c-1.6 1.6-3.7 2.5-6 2.5-2.4 0-4.4-.8-6-2.4zm-.8 84.7v-69.4h13.6v69.4z"/><path d="m305.6 782.4v-11.4c2.9 1.5 5.8 2.2 8.8 2.2 5 0 7.5-3.2 7.5-9.7v-75.3h13.4v75.6c0 6.5-1.7 11.5-5.1 15.2s-8.3 5.5-14.6 5.5c-3 0-6.3-.7-10-2.1zm17-109.5c-1.6-1.6-2.5-3.6-2.5-6s.8-4.4 2.4-6 3.6-2.5 6-2.5 4.4.8 6 2.5 2.5 3.7 2.5 6-.8 4.2-2.5 5.9-3.7 2.5-6 2.5-4.3-.8-5.9-2.4z"/><path d="m389.5 757.6v-92.3h14v92.3z"/><path d="m480.1 665.3v11.8h-24.2v80.5h-14.1v-80.5h-24.1v-11.8z"/></g></svg>